<?xml version="1.0" encoding="utf-8"?>
<!-- Generator: Adobe Illustrator 26.0.1, SVG Export Plug-In . SVG Version: 6.00 Build 0)  -->
<svg version="1.1" id="Слой_1" xmlns="http://www.w3.org/2000/svg" xmlns:xlink="http://www.w3.org/1999/xlink" x="0px" y="0px"
	 viewBox="0 0 53 53" style="enable-background:new 0 0 53 53;" xml:space="preserve">
<style type="text/css">
	.st0{fill:none;stroke:#FFFFFF;}
</style>
<path class="st0" d="M19,32.5v-6.8v-1.9c0-1.1,0.3-2.3,0.9-3.2c0.9-1.4,2.7-2.9,6.1-2.8c0,0,0.8,0,1.8,0.2c2.7,0.6,4.5,3.1,4.5,5.9
	v8.8c0,0.9-0.2,1.9-0.6,2.7c-0.8,1.5-2.4,3.5-5.7,3.4c0,0-4.2,0.3-6.3-3.4C19.2,34.5,19,33.5,19,32.5z"/>
<polyline class="st0" points="32.3,25.7 26,25.7 19,25.7 "/>
<path class="st0" d="M25.6,25.7v-9.2c0,0,0.1-1.8,2-2.5c0.9-0.4,1.5-0.9,1.9-1.2c0.3-0.3,0.4-0.8,0.4-1.2V9.4"/>
</svg>
