<?xml version="1.0" encoding="utf-8"?>
<!-- Generator: Adobe Illustrator 26.0.1, SVG Export Plug-In . SVG Version: 6.00 Build 0)  -->
<svg version="1.1" id="Слой_1" xmlns="http://www.w3.org/2000/svg" xmlns:xlink="http://www.w3.org/1999/xlink" x="0px" y="0px"
	 viewBox="0 0 53 53" style="enable-background:new 0 0 53 53;" xml:space="preserve">
<style type="text/css">
	.st0{fill:none;stroke:#FFFFFF;}
</style>
<path class="st0" d="M22.5,40.3v-7c0-0.9-0.3-1.8-0.9-2.5l-3.4-4.3c-0.9-1.1-1.3-2.4-1.3-3.8v-2.2c0-3.5,2.2-6.7,5.5-7.7
	c1-0.3,2.2-0.5,3.7-0.4c0,0,2-0.2,4.4,1c2.6,1.3,4.1,4,4.1,6.9v2.9c0,1.4-0.5,2.8-1.3,3.9l-2.8,3.6c-0.6,0.8-0.9,1.7-0.9,2.7
	l0.1,6.9H22.5z"/>
<line class="st0" x1="26" y1="35.9" x2="26" y2="23"/>
<line class="st0" x1="22.5" y1="35.9" x2="29.6" y2="35.9"/>
<circle class="st0" cx="25.9" cy="21.4" r="1.7"/>
</svg>
