<?xml version="1.0" encoding="utf-8"?>
<!-- Generator: Adobe Illustrator 26.0.1, SVG Export Plug-In . SVG Version: 6.00 Build 0)  -->
<svg version="1.1" id="Слой_1" xmlns="http://www.w3.org/2000/svg" xmlns:xlink="http://www.w3.org/1999/xlink" x="0px" y="0px"
	 viewBox="0 0 53 53" style="enable-background:new 0 0 53 53;" xml:space="preserve">
<style type="text/css">
	.st0{fill:none;stroke:#FFFFFF;stroke-miterlimit:10;}
</style>
<path class="st0" d="M19.3,29l9.9-9.4c0,0-1.8-7.8,6.3-6.5l-2,2.2L33.4,18h2.2l2.4-2.6c0,0,2.6,8.2-6.4,7.2l-9.2,9.1
	c0,0,1.7,8-6.7,6.7l2.1-2.5v-2.5h-2.3l-2.3,2.3C13.1,35.7,11.6,28.1,19.3,29z"/>
<polyline class="st0" points="13.2,15.6 14.5,15.6 14.5,14.5 15.5,14.5 15.5,13.3 "/>
<line class="st0" x1="14" y1="16.5" x2="16" y2="16.5"/>
<path class="st0" d="M15.5,18"/>
<polyline class="st0" points="15.5,18 15.5,17.5 15.5,16.6 "/>
<line class="st0" x1="17" y1="17.5" x2="15.6" y2="17.5"/>
<polyline class="st0" points="16.5,19 16.5,18.5 16.5,17.5 "/>
<line class="st0" x1="19" y1="18.5" x2="16.5" y2="18.5"/>
<polyline class="st0" points="18.5,17 18.5,18.1 18.5,16 "/>
<polyline class="st0" points="17.5,15 17.5,15.5 17.5,17 "/>
<line class="st0" x1="16" y1="15.5" x2="17.5" y2="15.5"/>
<path class="st0" d="M15.4,14.5c0.1,0,1.6,0,1.6,0"/>
<line class="st0" x1="17" y1="16.6" x2="18.3" y2="16.6"/>
<line class="st0" x1="18.1" y1="18.1" x2="24" y2="24"/>
<line class="st0" x1="27.2" y1="27.3" x2="31" y2="30.9"/>
<polyline class="st0" points="31.3,30.7 29.6,32.8 30.9,33.2 35.9,38.1 38.1,37.9 37.9,35.7 32.9,30.7 32.4,29.4 31.2,30.8 "/>
</svg>
