<?xml version="1.0" encoding="utf-8"?>
<!-- Generator: Adobe Illustrator 26.0.1, SVG Export Plug-In . SVG Version: 6.00 Build 0)  -->
<svg version="1.1" id="Слой_1" xmlns="http://www.w3.org/2000/svg" xmlns:xlink="http://www.w3.org/1999/xlink" x="0px" y="0px"
	 viewBox="0 0 53 53" style="enable-background:new 0 0 53 53;" xml:space="preserve">
<style type="text/css">
	.st0{fill:none;stroke:#FFFFFF;stroke-miterlimit:10;}
</style>
<path class="st0" d="M39.4,34.2c1.8-8.8-3.2-12.4-5.4-13.5c-0.5-0.3-1.1-0.2-1.6,0c-2,1.1-4.1,1.4-5.9,1.3c-2.6-0.1-4.7-0.9-5.7-1.4
	c-0.5-0.3-1.2-0.2-1.7,0.1c-2,1.4-6.6,5.3-5.4,12.8c0.1,0.4,0.3,0.9,0.7,1.1c0.7,0.5,2.1,1.1,4,0c0.5-0.3,0.9-0.6,1.3-1
	c1-1,3.5-3.4,5.3-3.4h3.5c0,0,2.6-0.1,5,3.3c0.3,0.4,0.5,0.7,0.9,0.9C35.4,35.3,37.7,36.5,39.4,34.2"/>
<path class="st0" d="M26.5,22.1c0.6-6.3,4.7-6.8,6.6-6.7c0.8,0,1.6-0.2,2.2-0.7c1-0.8,2.3-2.2,2.8-3.9"/>
<line class="st0" x1="18.1" y1="26.5" x2="23" y2="26.5"/>
<line class="st0" x1="20.5" y1="24.1" x2="20.5" y2="29"/>
<line class="st0" x1="29.3" y1="26.5" x2="32.6" y2="26.5"/>
<line class="st0" x1="33.4" y1="27.4" x2="36.6" y2="27.5"/>
<line class="st0" x1="30.9" y1="25" x2="30.9" y2="28"/>
<line class="st0" x1="35" y1="26.1" x2="35" y2="29"/>
</svg>
