<?xml version="1.0" encoding="utf-8"?>
<!-- Generator: Adobe Illustrator 26.0.1, SVG Export Plug-In . SVG Version: 6.00 Build 0)  -->
<svg version="1.1" id="Слой_1" xmlns="http://www.w3.org/2000/svg" xmlns:xlink="http://www.w3.org/1999/xlink" x="0px" y="0px"
	 viewBox="0 0 53 53" style="enable-background:new 0 0 53 53;" xml:space="preserve">
<style type="text/css">
	.st0{fill:none;stroke:#FFFFFF;stroke-miterlimit:10;}
</style>
<g>
	<line class="st0" x1="31.1" y1="13.9" x2="26.8" y2="18"/>
	<line class="st0" x1="34.9" y1="17.3" x2="30.4" y2="21.7"/>
	<polyline class="st0" points="32.3,23.7 27.7,28.4 22.8,28.4 20.5,26.2 20.5,20.3 25.1,16.3 	"/>
	<path class="st0" d="M22.8,28.4c0,0-0.8,1.5-3.4,1c0,0-0.5-2.1,1.1-3.2"/>
	<path class="st0" d="M19.4,29.4C16,35.8,23.1,38,23.1,38s2.8,0.6,4.9-1.2l7.9-8c0.8-0.9,1.9-1.4,3.1-1.5c1.1-0.1,2.5,0.1,3.8,1.2"
		/>
</g>
<line class="st0" x1="24" y1="14.9" x2="33.6" y2="24.7"/>
</svg>
