<?xml version="1.0" encoding="utf-8"?>
<!-- Generator: Adobe Illustrator 26.0.1, SVG Export Plug-In . SVG Version: 6.00 Build 0)  -->
<svg version="1.1" id="Слой_1" xmlns="http://www.w3.org/2000/svg" xmlns:xlink="http://www.w3.org/1999/xlink" x="0px" y="0px"
	 viewBox="0 0 320 320.1" style="enable-background:new 0 0 320 320.1;" xml:space="preserve">
<style type="text/css">
	.st0{fill:#FFFFFF;}
</style>
<path class="st0" d="M310.6,54.7c12.5-12.5,12.5-32.8,0-45.3s-32.8-12.5-45.3,0L160,114.8L54.6,9.5C42.1-3,21.8-3,9.3,9.5
	s-12.5,32.8,0,45.3l105.4,105.3L9.4,265.5c-12.5,12.5-12.5,32.8,0,45.3s32.8,12.5,45.3,0L160,205.4l105.4,105.3
	c12.5,12.5,32.8,12.5,45.3,0s12.5-32.8,0-45.3L205.3,160.1L310.6,54.7z"/>
</svg>
