<?xml version="1.0" encoding="utf-8"?>
<!-- Generator: Adobe Illustrator 26.0.1, SVG Export Plug-In . SVG Version: 6.00 Build 0)  -->
<svg version="1.1" id="Слой_1" xmlns="http://www.w3.org/2000/svg" xmlns:xlink="http://www.w3.org/1999/xlink" x="0px" y="0px"
	 viewBox="0 0 26 26" style="enable-background:new 0 0 26 26;" xml:space="preserve">
<style type="text/css">
	.st0{fill:#0E76A8;}
	.st1{fill:#FFFFFF;}
</style>
<g id="Слой_2">
	<circle class="st0" cx="13" cy="13" r="13"/>
	<circle class="st1" cx="8.5" cy="7.6" r="1.5"/>
	<polygon class="st1" points="7,10 10,10 10,18 7.3,18 7.1,18 7,18 	"/>
	<path class="st1" d="M11.6,18v-8c0.4,0,0.8-0.1,1.7,0.1c0.4,0.1,0.7,0.6,0.8,0.8c0-0.1,1.1-1.2,2.2-1.2c0.6,0,1.4,0.3,1.6,0.4
		c1.2,0.8,1,2.3,1,2.6V18l-1.9,0L17,12l-3,0l0,6L11.6,18z"/>
</g>
</svg>
