<?xml version="1.0" encoding="utf-8"?>
<!-- Generator: Adobe Illustrator 26.0.1, SVG Export Plug-In . SVG Version: 6.00 Build 0)  -->
<svg version="1.1" id="Слой_1" xmlns="http://www.w3.org/2000/svg" xmlns:xlink="http://www.w3.org/1999/xlink" x="0px" y="0px"
	 viewBox="0 0 26 26" style="enable-background:new 0 0 26 26;" xml:space="preserve">
<style type="text/css">
	.st0{fill:#3F729B;}
	.st1{fill:#FFFFFF;}
</style>
<circle class="st0" cx="13" cy="13" r="13"/>
<path class="st1" d="M8.1,5.8H18c0,0,1.9,0,2.2,2v9.9c0,1.1-0.8,2.1-2,2.2c0,0,0,0,0,0l-10,0.1c0,0-0.8,0-1.4-0.6
	c-0.4-0.4-0.5-0.8-0.6-1.3C5.8,16.9,5.8,13,6,7.8C6,7.8,6,6.1,8.1,5.8z"/>
<path class="st0" d="M7.2,11.1h1.8c0,0-0.1,1.2,0.1,2.5c0.3,1.8,1.9,3.1,3.8,3.1l0.6,0c1.3,0,2.7-0.7,3.2-1.9
	c0.4-0.9,0.5-1.4,0.5-3.7h1.8v5.8c0,0.9-0.5,1.7-1.4,1.9c-0.1,0-0.2,0-0.3,0l-8.5,0.1c0,0-1.3,0.1-1.6-1.4V11.1z"/>
<circle class="st0" cx="13" cy="13" r="2.1"/>
<circle class="st0" cx="17.3" cy="8.5" r="1.5"/>
</svg>
