<?xml version="1.0" encoding="utf-8"?>
<!-- Generator: Adobe Illustrator 26.0.1, SVG Export Plug-In . SVG Version: 6.00 Build 0)  -->
<svg version="1.1" id="Слой_1" xmlns="http://www.w3.org/2000/svg" xmlns:xlink="http://www.w3.org/1999/xlink" x="0px" y="0px"
	 viewBox="0 0 26 26" style="enable-background:new 0 0 26 26;" xml:space="preserve">
<style type="text/css">
	.st0{fill:#26A6D1;}
	.st1{fill:#FFFFFF;}
</style>
<circle class="st0" cx="13" cy="13" r="13"/>
<path class="st1" d="M7,18c-0.2,0.3-0.1,0.7,0,1c1,0.1,2.4,0.2,4.1,0c1.4-0.1,2.3-0.2,3.4-0.7c0.4-0.2,4.2-1.7,4.4-4.2
	c0.1-1.2-0.6-2.3,0-3.4c0.1-0.2,0.3-0.6,0.8-0.9c0.4-0.2,0.8-0.2,1-0.2c-0.3-0.4-0.6-0.8-1.1-1.2c-1.8-1.3-4-0.9-4.5-0.8
	c0,0.2-0.2,2.2-2,3.2c-1.4,0.8-2.8,0.3-3.2,0.2c-2-0.6-2.8-2.6-2.9-2.8c-0.6,1.3-1.2,3-0.7,4.7c0.8,2.3,3.5,3.5,3.1,4.3
	C9.4,17.7,7.5,17.1,7,18z"/>
</svg>
