<?xml version="1.0" encoding="utf-8"?>
<!-- Generator: Adobe Illustrator 26.0.1, SVG Export Plug-In . SVG Version: 6.00 Build 0)  -->
<svg version="1.1" id="Слой_1" xmlns="http://www.w3.org/2000/svg" xmlns:xlink="http://www.w3.org/1999/xlink" x="0px" y="0px"
	 viewBox="0 0 211 210.1" style="enable-background:new 0 0 211 210.1;" xml:space="preserve">
<style type="text/css">
	.st0{fill:none;stroke:#FFFFFF;stroke-width:6;stroke-miterlimit:10;}
</style>
<g id="Слой_2_00000086655464489106064190000015599007668240796335_">
</g>
<path class="st0" d="M105.5,50.6"/>
<path class="st0" d="M84.3,71.9"/>
<path class="st0" d="M22.4,55c6.2,19.9,36.8,103.6,123.1,145.7c0,0,8.9,3.4,24.4-1.9l19.3-21.2c1.1-1.3,2-2.7,2.5-4.4
	c1-3.9-0.2-8-3.6-11.1c-0.1-0.1-0.2-0.1-0.2-0.1l-32-23.9c0,0-7.7-4.9-14.8,0.7c-7,5.6-8.6,7-8.6,7s-6.7,5-13.3,0
	c-6.7-5-53.1-63.7-53.1-63.7s-4.3-11.9,4-15.8S81,53.9,81,53.9s1.8-6.1-0.7-11.7c-2.2-4.8-12.8-24.9-15.9-30.7
	c-0.6-1.1-1.5-2-2.6-2.5c-3.5-1.5-11.4-4-19.9,0.9c-6.9,4-13.2,10.6-17,15c-2.4,2.9-3.8,6.5-3.8,10.2v11.4
	C21.2,49.5,21.6,52.3,22.4,55z"/>
</svg>
